<?xml version="1.0" encoding="utf-8"?>
<!-- Generator: Adobe Illustrator 20.1.0, SVG Export Plug-In . SVG Version: 6.00 Build 0)  -->
<svg version="1.1" id="Layer_1" xmlns:xml="http://www.w3.org/XML/1998/namespace"
	 xmlns="http://www.w3.org/2000/svg" xmlns:xlink="http://www.w3.org/1999/xlink" x="0px" y="0px" viewBox="0 0 330 40"
	 style="enable-background:new 0 0 330 40;" xml:space="preserve">
<style type="text/css">
	.st0{fill:#162950;}
	.st1{fill:#D69C1A;}
</style>
<g>
	<path class="st0" d="M9.5,25.4c0.2,1.3,0.5,2.2,1.1,2.9c1,1.1,2.6,1.7,5,1.7c1.4,0,2.5-0.2,3.4-0.5c1.7-0.6,2.5-1.7,2.5-3.2
		c0-0.9-0.4-1.6-1.2-2.1c-0.8-0.5-2.1-0.9-3.9-1.3l-3-0.7c-3-0.7-5-1.4-6.1-2.1c-1.9-1.3-2.8-3.3-2.8-6c0-2.5,0.9-4.6,2.8-6.2
		c1.8-1.7,4.5-2.5,8.1-2.5c3,0,5.5,0.8,7.6,2.3s3.2,3.8,3.3,6.8h-5.6c-0.1-1.7-0.9-2.9-2.2-3.6c-0.9-0.5-2.1-0.7-3.5-0.7
		c-1.5,0-2.8,0.3-3.7,0.9s-1.4,1.5-1.4,2.5c0,1,0.5,1.7,1.4,2.2c0.6,0.3,1.8,0.7,3.7,1.2l4.9,1.2c2.1,0.5,3.8,1.2,4.8,2
		c1.7,1.3,2.5,3.2,2.5,5.7c0,2.5-1,4.7-3,6.3c-2,1.7-4.8,2.5-8.3,2.5c-3.7,0-6.6-0.8-8.7-2.5C5,30.6,4,28.3,4,25.4H9.5z"/>
	<path class="st0" d="M49.7,31.5c-2.1,2.2-5.2,3.3-9.1,3.3c-4,0-7-1.1-9.1-3.3c-2.8-2.7-4.2-6.5-4.2-11.5c0-5.1,1.4-8.9,4.2-11.5
		c2.1-2.2,5.2-3.3,9.1-3.3c4,0,7,1.1,9.1,3.3C52.6,11.1,54,14.9,54,20C54,25,52.6,28.8,49.7,31.5z M46.1,27.3c1.4-1.7,2-4.1,2-7.3
		c0-3.1-0.7-5.5-2-7.3c-1.4-1.7-3.2-2.6-5.5-2.6s-4.2,0.9-5.5,2.6S33,16.9,33,20c0,3.1,0.7,5.6,2.1,7.3s3.2,2.6,5.5,2.6
		S44.7,29,46.1,27.3z"/>
	<path class="st0" d="M58.2,9c2.2-2.3,5.1-3.4,8.6-3.4c4.6,0,8,1.5,10.2,4.6c1.2,1.7,1.8,3.5,1.9,5.2H73c-0.4-1.3-0.8-2.3-1.4-3
		c-1-1.2-2.6-1.8-4.6-1.8c-2.1,0-3.7,0.9-4.9,2.6s-1.8,4.1-1.8,7.3c0,3.1,0.6,5.5,1.9,7c1.3,1.6,2.9,2.3,4.8,2.3c2,0,3.5-0.7,4.6-2
		c0.6-0.7,1.1-1.8,1.4-3.2h5.8c-0.5,3-1.8,5.5-3.8,7.4c-2.1,1.9-4.7,2.9-7.9,2.9c-4,0-7.1-1.3-9.4-3.9c-2.3-2.6-3.4-6.1-3.4-10.6
		C54.3,15.4,55.6,11.6,58.2,9z"/>
	<path class="st0" d="M85.9,34h-5.8V6.1h5.8V34z"/>
	<path class="st0" d="M96.4,6.1h6.6l9.9,27.9h-6.3l-1.8-5.7H94.5L92.6,34h-6.1L96.4,6.1z M96,23.4h7.1l-3.5-11L96,23.4z"/>
	<path class="st0" d="M113.5,6.1h5.8V29h13.9v5h-19.8V6.1z"/>
	<path class="st0" d="M160,6.1h8.4V34h-5.4V15.1c0-0.5,0-1.3,0-2.3c0-1,0-1.7,0-2.3L157.7,34H152l-5.2-23.4c0,0.5,0,1.3,0,2.3
		c0,1,0,1.7,0,2.3V34h-5.4V6.1h8.5l5.1,21.9L160,6.1z"/>
	<path class="st0" d="M191.5,11h-14.8V17h13.5v4.8h-13.5V29h15.4v5H171V6.1h20.5V11z"/>
	<path class="st0" d="M210.1,6.7c2,0.6,3.5,1.8,4.8,3.5c1,1.4,1.6,2.9,2,4.5c0.4,1.6,0.5,3.2,0.5,4.6c0,3.7-0.7,6.9-2.2,9.4
		c-2,3.5-5.1,5.2-9.4,5.2h-12V6.1h12C207.5,6.1,209,6.3,210.1,6.7z M199.5,10.9v18.2h5.4c2.8,0,4.7-1.4,5.8-4.1
		c0.6-1.5,0.9-3.3,0.9-5.3c0-2.8-0.4-5-1.3-6.5c-0.9-1.5-2.7-2.3-5.3-2.3H199.5z"/>
	<path class="st0" d="M224.2,34h-5.8V6.1h5.8V34z"/>
	<path class="st0" d="M234.7,6.1h6.6l9.9,27.9h-6.3l-1.8-5.7h-10.3l-1.9,5.7h-6.1L234.7,6.1z M234.3,23.4h7.1l-3.5-11L234.3,23.4z"
		/>
	<path class="st1" d="M264.8,6.1h6.6l9.9,27.9H275l-1.8-5.7h-10.3L261,34h-6.1L264.8,6.1z M264.4,23.4h7.1l-3.5-11L264.4,23.4z"/>
	<path class="st1" d="M300.6,21.9c-1.6,1.4-4,2-7,2h-5.8v10h-5.8V6.1h12c2.8,0,5,0.7,6.6,2.2s2.5,3.7,2.5,6.7
		C303.1,18.2,302.3,20.5,300.6,21.9z M296.2,11.9c-0.7-0.6-1.8-0.9-3.1-0.9h-5.3v8.2h5.3c1.3,0,2.4-0.3,3.1-1
		c0.7-0.7,1.1-1.7,1.1-3.2S296.9,12.5,296.2,11.9z"/>
	<path class="st1" d="M323.6,21.9c-1.6,1.4-4,2-7,2h-5.8v10H305V6.1h12c2.8,0,5,0.7,6.6,2.2s2.5,3.7,2.5,6.7
		C326,18.2,325.2,20.5,323.6,21.9z M319.1,11.9c-0.7-0.6-1.8-0.9-3.1-0.9h-5.3v8.2h5.3c1.3,0,2.4-0.3,3.1-1c0.7-0.7,1.1-1.7,1.1-3.2
		S319.9,12.5,319.1,11.9z"/>
</g>
</svg>
