<svg xmlns="http://www.w3.org/2000/svg" xmlns:xlink="http://www.w3.org/1999/xlink" version="1.1" id="Layer_1" x="0px" y="0px" width="330px" height="40px" viewBox="0 0 330 40" enable-background="new 0 0 330 40" xml:space="preserve" xmlns:xml="http://www.w3.org/XML/1998/namespace">
<g>
	<g>
		<path fill="#162950" d="M22.583,26.123h-0.091L14.891,3.774H4.832v32.498h6.69V13.469h0.092l7.965,22.804h5.508l7.965-23.03h0.091    v23.03h6.691V3.774h-10.06L22.583,26.123z M49.949,22.3h15.748v-5.554H49.949V9.782h17.159V3.774H42.803v32.498h24.67v-6.009    H49.949V22.3z M95.361,7.779c-1.318-1.335-2.883-2.336-4.688-3.004c-1.807-0.668-3.756-1.001-5.849-1.001h-14.02v32.498h14.02    c2.487,0,4.649-0.416,6.485-1.252c1.836-0.834,3.369-1.98,4.598-3.436c1.229-1.457,2.146-3.187,2.753-5.189    c0.607-2.002,0.911-4.187,0.911-6.555c0-2.7-0.372-5.053-1.115-7.055C97.713,10.783,96.682,9.115,95.361,7.779z M91.744,25.076    c-0.455,1.244-1.063,2.252-1.821,3.027c-0.759,0.773-1.624,1.326-2.595,1.661c-0.972,0.334-1.973,0.499-3.004,0.499h-6.372V9.782    h5.098c1.76,0,3.239,0.25,4.437,0.751c1.199,0.501,2.163,1.222,2.892,2.162c0.728,0.941,1.251,2.07,1.569,3.391    c0.319,1.319,0.479,2.8,0.479,4.438C92.426,22.314,92.199,23.831,91.744,25.076z M102.531,36.272h7.145V3.774h-7.145V36.272z     M124.651,3.774l-12.29,32.498h7.191l2.549-7.237h12.153l2.458,7.237h7.42L131.979,3.774H124.651z M123.969,23.71l4.232-11.925    h0.092l4.096,11.925H123.969z M176.994,19.341c-1.063-0.697-2.131-1.206-3.209-1.524s-1.92-0.539-2.525-0.66    c-2.033-0.517-3.68-0.941-4.939-1.274c-1.258-0.334-2.244-0.668-2.957-1.002c-0.715-0.334-1.191-0.697-1.434-1.092    c-0.244-0.395-0.365-0.911-0.365-1.548c0-0.697,0.15-1.275,0.455-1.729c0.303-0.456,0.689-0.835,1.162-1.139    c0.471-0.303,0.992-0.516,1.568-0.637s1.154-0.183,1.73-0.183c0.879,0,1.691,0.076,2.434,0.228c0.744,0.152,1.404,0.41,1.98,0.774    c0.578,0.364,1.039,0.865,1.389,1.501c0.35,0.639,0.553,1.442,0.615,2.413h6.918c0-1.881-0.357-3.481-1.068-4.802    c-0.715-1.32-1.678-2.404-2.891-3.255c-1.215-0.849-2.604-1.463-4.166-1.843C170.129,3.19,168.498,3,166.799,3    c-1.457,0-2.912,0.197-4.369,0.592s-2.762,1.001-3.914,1.82c-1.154,0.819-2.088,1.844-2.799,3.073    c-0.715,1.228-1.07,2.679-1.07,4.347c0,1.486,0.279,2.753,0.842,3.801c0.561,1.047,1.297,1.919,2.207,2.616    c0.91,0.699,1.941,1.268,3.096,1.708c1.152,0.439,2.336,0.812,3.551,1.113c1.182,0.336,2.352,0.639,3.504,0.911    c1.152,0.273,2.186,0.593,3.094,0.955c0.912,0.365,1.646,0.82,2.211,1.366c0.559,0.547,0.84,1.26,0.84,2.14    c0,0.819-0.213,1.496-0.637,2.025c-0.426,0.531-0.955,0.949-1.594,1.252c-0.637,0.303-1.318,0.508-2.049,0.614    c-0.727,0.107-1.41,0.159-2.047,0.159c-0.939,0-1.85-0.114-2.73-0.341c-0.881-0.228-1.646-0.576-2.299-1.047    c-0.652-0.47-1.178-1.085-1.57-1.844c-0.396-0.759-0.592-1.685-0.592-2.776h-6.918c-0.031,2.003,0.332,3.731,1.092,5.189    c0.758,1.455,1.781,2.656,3.072,3.595c1.289,0.942,2.777,1.632,4.461,2.072c1.684,0.438,3.422,0.658,5.211,0.658    c2.215,0,4.166-0.257,5.85-0.772c1.684-0.517,3.094-1.237,4.23-2.163c1.141-0.925,1.996-2.024,2.574-3.3    c0.576-1.274,0.865-2.653,0.865-4.142c0-1.821-0.387-3.314-1.16-4.482C178.975,20.972,178.057,20.039,176.994,19.341z     M253.391,25.577h-0.092L239.734,3.774h-7.1v32.498h6.689V14.516h0.092l13.518,21.757h7.146V3.774h-6.689V25.577z M275.055,3.774    l-12.289,32.498h7.191l2.549-7.237h12.152l2.457,7.237h7.42L282.383,3.774H275.055z M274.371,23.71l4.232-11.925h0.092    l4.096,11.925H274.371z M324.416,34.611c-0.166-0.652-0.287-1.343-0.363-2.07c-0.076-0.729-0.129-1.441-0.16-2.141    c-0.031-0.696-0.063-1.304-0.09-1.82c-0.063-0.818-0.176-1.639-0.342-2.457c-0.166-0.82-0.432-1.571-0.797-2.254    c-0.363-0.683-0.836-1.274-1.41-1.775c-0.578-0.5-1.307-0.871-2.186-1.115v-0.091c1.82-0.729,3.133-1.79,3.938-3.186    c0.803-1.396,1.205-3.05,1.205-4.962c0-1.244-0.219-2.404-0.658-3.481c-0.441-1.077-1.078-2.025-1.912-2.845    c-0.836-0.819-1.838-1.464-3.006-1.935s-2.48-0.705-3.936-0.705h-17.523v32.498h7.146V23.574h7.145    c1.789,0,3.08,0.395,3.869,1.183c0.789,0.79,1.305,2.033,1.547,3.731c0.184,1.308,0.318,2.672,0.41,4.098    c0.092,1.428,0.334,2.655,0.729,3.687h7.146C324.834,35.817,324.582,35.265,324.416,34.611z M315.836,17.383    c-0.818,0.729-2.047,1.094-3.686,1.094h-7.828V9.327h7.828c1.639,0,2.867,0.357,3.686,1.069c0.82,0.714,1.23,1.859,1.23,3.436    C317.066,15.472,316.656,16.655,315.836,17.383z"/>
	</g>
</g>
<g>
	<path fill="#D59C29" d="M213.123,20.002c0,3.836-3.111,6.948-6.949,6.948c-3.836,0-6.945-3.112-6.945-6.948   c0-3.837,3.109-6.947,6.945-6.947C210.012,13.055,213.123,16.165,213.123,20.002z"/>
	<path fill="#D59C29" d="M195.662,29.796c-2.674-2.593-4.148-6.07-4.148-9.794c0-3.643,1.42-7.068,3.996-9.643l2.893,2.893   c-1.803,1.803-2.797,4.2-2.797,6.75c0,2.606,1.031,5.041,2.904,6.856L195.662,29.796z"/>
	<path fill="#D59C29" d="M216.844,29.644l-2.895-2.894c1.803-1.802,2.793-4.198,2.793-6.748s-0.992-4.948-2.795-6.751l2.895-2.893   c2.574,2.575,3.994,6.001,3.994,9.644C220.836,23.644,219.418,27.067,216.844,29.644z"/>
	<path fill="#D59C29" d="M222.539,36.365l-2.893-2.893c3.596-3.598,5.58-8.382,5.58-13.471s-1.984-9.872-5.58-13.47l2.893-2.894   c4.369,4.371,6.777,10.182,6.777,16.363S226.908,31.994,222.539,36.365z"/>
	<path fill="#D59C29" d="M189.813,36.366c-4.371-4.372-6.779-10.183-6.779-16.364s2.408-11.992,6.779-16.363l2.893,2.894   c-3.598,3.598-5.58,8.382-5.58,13.47c0,5.089,1.982,9.873,5.58,13.471L189.813,36.366z"/>
</g>
</svg>